<?xml version="1.0" encoding="utf-8"?>
<!-- Generator: Adobe Illustrator 26.5.0, SVG Export Plug-In . SVG Version: 6.00 Build 0)  -->
<svg version="1.1" id="Слой_1" xmlns="http://www.w3.org/2000/svg" xmlns:xlink="http://www.w3.org/1999/xlink" x="0px" y="0px"
	 viewBox="0 0 866 279" style="enable-background:new 0 0 866 279;" xml:space="preserve">
<style type="text/css">
	.st0{fill:url(#SVGID_1_);}
	.st1{fill:url(#SVGID_00000090282137642326163280000015442548126672148670_);}
	.st2{fill:#106CFF;}
	.st3{fill:url(#SVGID_00000064354755608206933560000006694167226906040224_);}
</style>
<g>
	<g>
		<linearGradient id="SVGID_1_" gradientUnits="userSpaceOnUse" x1="336.082" y1="111.5524" x2="384.5494" y2="86.3683">
			<stop  offset="0" style="stop-color:#106CFF"/>
			<stop  offset="0.8699" style="stop-color:#734FD8"/>
		</linearGradient>
		<path class="st0" d="M410.37,106.79V67.5c0-1.37-1.11-2.47-2.47-2.47h-49.67c-2.35,0-3.37,2.96-1.54,4.41l49.67,39.3
			C407.99,110.02,410.37,108.86,410.37,106.79z"/>
		
			<linearGradient id="SVGID_00000158742538009787360400000001831701009601453970_" gradientUnits="userSpaceOnUse" x1="248.8549" y1="165.7274" x2="346.6722" y2="95.1779">
			<stop  offset="0.2062" style="stop-color:#106CFF"/>
			<stop  offset="0.8699" style="stop-color:#734FD8"/>
		</linearGradient>
		<path style="fill:url(#SVGID_00000158742538009787360400000001831701009601453970_);" d="M336.63,65.02H223.45
			c-2.05,0-3.71,1.66-3.71,3.71v39.32c0,2.05,1.66,3.71,3.71,3.71h62.46c2.05,0,3.71,1.66,3.71,3.71v102.26
			c0,2.05,1.66,3.71,3.71,3.71h43.3c2.05,0,3.71-1.66,3.71-3.71v-149C340.34,66.68,338.68,65.02,336.63,65.02z"/>
	</g>
	<g>
		<path class="st2" d="M362.62,170.19h17.58c0.42,0,0.84,0.1,1.27,0.31c0.43,0.21,0.82,0.49,1.16,0.83
			c0.34,0.34,0.62,0.73,0.83,1.16c0.21,0.43,0.31,0.87,0.31,1.32v6.75c0,0.45-0.11,0.89-0.31,1.32c-0.21,0.43-0.49,0.82-0.83,1.16
			c-0.34,0.34-0.73,0.62-1.16,0.83c-0.43,0.21-0.86,0.31-1.27,0.31h-20.44c-0.42,0-0.84-0.1-1.27-0.31
			c-0.43-0.21-0.82-0.48-1.16-0.83c-0.34-0.34-0.62-0.73-0.83-1.16c-0.21-0.43-0.31-0.87-0.31-1.32v-15.25
			c0-0.45,0.1-0.89,0.31-1.32c0.21-0.43,0.48-0.82,0.83-1.16c0.34-0.34,0.73-0.62,1.16-0.83c0.43-0.21,0.86-0.31,1.27-0.31h24.02
			v6.04h-21.16V170.19z M362.62,175.69v2.46h14.72v-2.46H362.62z"/>
		<path class="st2" d="M410.63,161.69h1.21c0.51,0,0.98,0.08,1.43,0.25c0.45,0.16,0.83,0.38,1.16,0.65
			c0.33,0.27,0.59,0.57,0.78,0.92c0.19,0.34,0.29,0.68,0.29,1.01v19.68h-6.44V170.1c-2.5,2.42-4.67,4.5-6.51,6.24
			c-1.83,1.74-3.4,3.18-4.7,4.32c-1.3,1.13-2.36,1.98-3.18,2.55c-0.82,0.57-1.47,0.88-1.95,0.94c-0.03,0.03-0.1,0.04-0.22,0.04
			h-1.25c-0.48,0-0.94-0.08-1.39-0.25c-0.45-0.16-0.84-0.38-1.16-0.65c-0.33-0.27-0.59-0.57-0.78-0.89
			c-0.19-0.33-0.29-0.67-0.29-1.03v-19.68h6.44v14.04c2.59-2.44,4.81-4.54,6.64-6.28s3.38-3.18,4.63-4.29
			c1.25-1.12,2.27-1.95,3.06-2.5c0.79-0.55,1.44-0.86,1.95-0.92C410.39,161.71,410.48,161.69,410.63,161.69z"/>
		<path class="st2" d="M454.96,170.19h14.45v-8.5h6.44v22.5h-6.44v-8.5h-14.45v8.5h-6.44v-22.5h6.44V170.19z"/>
		<path class="st2" d="M482.11,183.88c-0.43-0.21-0.82-0.48-1.16-0.83c-0.34-0.34-0.62-0.73-0.83-1.16
			c-0.21-0.43-0.31-0.87-0.31-1.32v-15.25c0-0.45,0.1-0.89,0.31-1.32c0.21-0.43,0.48-0.82,0.83-1.16c0.34-0.34,0.73-0.62,1.16-0.83
			c0.43-0.21,0.86-0.31,1.27-0.31h21.65v6.04h-18.79v2.46h18.74v5.5h-18.74v2.46h18.79v6.04h-21.65
			C482.96,184.19,482.54,184.09,482.11,183.88z"/>
		<path class="st2" d="M441.01,184.19h-21.65v-6.04h18.79v-2.46h-18.74v-5.5h18.74v-2.46h-18.79v-6.04h21.65
			c0.42,0,0.84,0.1,1.27,0.31c0.43,0.21,0.82,0.49,1.16,0.83c0.34,0.34,0.62,0.73,0.83,1.16c0.21,0.43,0.31,0.87,0.31,1.32v15.25
			c0,0.45-0.1,0.89-0.31,1.32c-0.21,0.43-0.48,0.82-0.83,1.16c-0.34,0.34-0.73,0.62-1.16,0.83
			C441.86,184.09,441.43,184.19,441.01,184.19z"/>
		<path class="st2" d="M511.29,183.88c-0.43-0.21-0.82-0.48-1.16-0.83c-0.34-0.34-0.62-0.73-0.83-1.16
			c-0.21-0.43-0.31-0.87-0.31-1.32v-15.25c0-0.45,0.1-0.89,0.31-1.32c0.21-0.43,0.48-0.82,0.83-1.16c0.34-0.34,0.73-0.62,1.16-0.83
			c0.43-0.21,0.86-0.31,1.27-0.31h21.65v6.04h-18.79v10.42h18.79v6.04h-21.65C512.14,184.19,511.72,184.09,511.29,183.88z"/>
	</g>
	<g>
		<path class="st2" d="M379.17,198.95h1.21c0.51,0,0.98,0.08,1.43,0.25c0.45,0.16,0.83,0.38,1.16,0.65
			c0.33,0.27,0.59,0.57,0.78,0.92c0.19,0.34,0.29,0.68,0.29,1.01v19.68h-6.44v-14.09c-2.5,2.42-4.67,4.5-6.51,6.24
			c-1.83,1.74-3.4,3.18-4.7,4.32c-1.3,1.13-2.36,1.98-3.18,2.55c-0.82,0.57-1.47,0.88-1.95,0.94c-0.03,0.03-0.1,0.04-0.22,0.04
			h-1.25c-0.48,0-0.94-0.08-1.39-0.25c-0.45-0.16-0.84-0.38-1.16-0.65c-0.33-0.27-0.59-0.57-0.78-0.89
			c-0.19-0.33-0.29-0.67-0.29-1.03v-19.68h6.44v14.04c2.59-2.44,4.81-4.54,6.64-6.28c1.83-1.74,3.38-3.18,4.63-4.29
			c1.25-1.12,2.27-1.95,3.06-2.5c0.79-0.55,1.44-0.86,1.95-0.92C378.93,198.96,379.02,198.95,379.17,198.95z"/>
		<path class="st2" d="M394.35,207.45h14.45v-8.5h6.44v22.5h-6.44v-8.5h-14.45v8.5h-6.44v-22.5h6.44V207.45z"/>
		<path class="st2" d="M419.19,198.95h27.02v6.04h-10.29v16.46h-6.44v-16.46h-10.29V198.95z"/>
		<path class="st2" d="M452.46,221.13c-0.43-0.21-0.82-0.48-1.16-0.83c-0.34-0.34-0.62-0.73-0.83-1.16
			c-0.21-0.43-0.31-0.87-0.31-1.32v-15.25c0-0.45,0.1-0.89,0.31-1.32c0.21-0.43,0.48-0.82,0.83-1.16c0.34-0.34,0.73-0.62,1.16-0.83
			c0.43-0.21,0.86-0.31,1.27-0.31h21.65v6.04H456.6v2.46h18.74v5.5H456.6v2.46h18.79v6.04h-21.65
			C453.32,221.44,452.89,221.34,452.46,221.13z"/>
		<path class="st2" d="M479.33,221.44v-18.87c0-0.45,0.1-0.89,0.31-1.32c0.21-0.43,0.48-0.82,0.83-1.16
			c0.34-0.34,0.73-0.62,1.16-0.83c0.43-0.21,0.86-0.31,1.27-0.31h21.65v6.04h-18.79v16.46H479.33z"/>
		<path class="st2" d="M540.96,221.44h-7.16l9.21-19.28c1.01-2.15,2.55-3.22,4.61-3.22h2.86c1.01,0,1.83,0.27,2.44,0.8
			c0.61,0.54,1.17,1.34,1.68,2.42l9.21,19.28h-7.16l-1.79-3.76h-12.12L540.96,221.44z M548.83,205.83l-3.44,6.49h6.93L548.83,205.83
			z"/>
		<path class="st2" d="M560.24,198.95h27.02v6.04h-10.29v16.46h-6.44v-16.46h-10.29V198.95z"/>
		<path class="st2" d="M616.77,199.26c0.43,0.21,0.82,0.49,1.16,0.83c0.34,0.34,0.62,0.73,0.83,1.16c0.21,0.43,0.31,0.87,0.31,1.32
			v15.25c0,0.45-0.11,0.89-0.31,1.32c-0.21,0.43-0.49,0.82-0.83,1.16c-0.34,0.34-0.73,0.62-1.16,0.83
			c-0.43,0.21-0.86,0.31-1.27,0.31h-20.71c-0.42,0-0.84-0.1-1.27-0.31c-0.43-0.21-0.82-0.48-1.16-0.83
			c-0.34-0.34-0.62-0.73-0.83-1.16c-0.21-0.43-0.31-0.87-0.31-1.32v-15.25c0-0.45,0.1-0.89,0.31-1.32c0.21-0.43,0.48-0.82,0.83-1.16
			c0.34-0.34,0.73-0.62,1.16-0.83c0.43-0.21,0.86-0.31,1.27-0.31h20.71C615.92,198.95,616.34,199.05,616.77,199.26z M597.65,204.99
			v10.42h14.98v-10.42H597.65z"/>
		<path class="st2" d="M534.32,201.25c-0.21-0.43-0.49-0.82-0.83-1.16c-0.34-0.34-0.73-0.62-1.16-0.83
			c-0.43-0.21-0.86-0.31-1.27-0.31h-22.54v22.5h6.44v-8.41h16.1c0.42,0,0.84-0.1,1.27-0.31c0.43-0.21,0.82-0.48,1.16-0.83
			c0.34-0.34,0.62-0.73,0.83-1.16c0.21-0.43,0.31-0.87,0.31-1.32v-6.84C534.63,202.12,534.53,201.68,534.32,201.25z M528.19,207.53
			h-13.24v-2.55h13.24V207.53z"/>
		<path class="st2" d="M648.84,201.25c-0.21-0.43-0.48-0.82-0.83-1.16c-0.34-0.34-0.73-0.62-1.16-0.83
			c-0.43-0.21-0.86-0.31-1.27-0.31h-22.54v22.5h6.44v-8.41h16.1c0.42,0,0.84-0.1,1.27-0.31c0.43-0.21,0.82-0.48,1.16-0.83
			c0.34-0.34,0.62-0.73,0.83-1.16c0.21-0.43,0.31-0.87,0.31-1.32v-6.84C649.15,202.12,649.04,201.68,648.84,201.25z M642.71,207.53
			h-13.24v-2.55h13.24V207.53z"/>
	</g>
	<g>
		
			<linearGradient id="SVGID_00000074443850039593981210000013792305455520108690_" gradientUnits="userSpaceOnUse" x1="373.3364" y1="131.8548" x2="380.4835" y2="128.1411">
			<stop  offset="0" style="stop-color:#106CFF"/>
			<stop  offset="0.8699" style="stop-color:#734FD8"/>
		</linearGradient>
		<path style="fill:url(#SVGID_00000074443850039593981210000013792305455520108690_);" d="M384.29,131.15v-5.79
			c0-0.2-0.16-0.36-0.36-0.36h-7.32c-0.35,0-0.5,0.44-0.23,0.65l7.32,5.79C383.94,131.63,384.29,131.46,384.29,131.15z"/>
		<path class="st2" d="M428.07,131.65v15.92c0,0.24-0.2,0.44-0.44,0.44h-5.69c-0.24,0-0.44-0.2-0.44-0.44v-18.82
			c0-0.46,0.11-0.91,0.32-1.35c0.21-0.44,0.49-0.84,0.84-1.19c0.35-0.35,0.75-0.63,1.19-0.84c0.44-0.21,0.87-0.32,1.3-0.32h18.81
			c0.43,0,0.86,0.11,1.3,0.32c0.44,0.21,0.84,0.5,1.19,0.84c0.35,0.35,0.63,0.75,0.84,1.19c0.21,0.44,0.32,0.89,0.32,1.35v18.82
			c0,0.24-0.2,0.44-0.44,0.44h-5.69c-0.24,0-0.44-0.2-0.44-0.44v-15.92c0-0.24-0.2-0.44-0.44-0.44h-12.08
			C428.27,131.21,428.07,131.4,428.07,131.65z"/>
		<path class="st2" d="M414.76,125.34c0.44,0.21,0.84,0.5,1.19,0.84c0.35,0.35,0.63,0.75,0.84,1.19c0.21,0.44,0.32,0.89,0.32,1.35
			v15.57c0,0.46-0.11,0.91-0.32,1.35c-0.21,0.44-0.5,0.84-0.84,1.19c-0.35,0.35-0.75,0.63-1.19,0.84c-0.44,0.21-0.88,0.32-1.3,0.32
			h-21.14c-0.43,0-0.86-0.11-1.3-0.32c-0.44-0.21-0.84-0.49-1.19-0.84c-0.35-0.35-0.63-0.75-0.84-1.19
			c-0.21-0.44-0.32-0.89-0.32-1.35v-15.57c0-0.46,0.11-0.91,0.32-1.35c0.21-0.44,0.49-0.84,0.84-1.19c0.35-0.35,0.75-0.63,1.19-0.84
			c0.44-0.21,0.87-0.32,1.3-0.32h21.14C413.89,125.02,414.32,125.13,414.76,125.34z M395.25,131.62v9.75c0,0.24,0.2,0.44,0.44,0.44
			h14.41c0.24,0,0.44-0.2,0.44-0.44v-9.75c0-0.24-0.2-0.44-0.44-0.44h-14.41C395.45,131.18,395.25,131.38,395.25,131.62z"/>
		<path class="st2" d="M454.36,147.9c-0.44-0.21-0.84-0.5-1.19-0.85c-0.35-0.35-0.64-0.75-0.85-1.19c-0.21-0.44-0.32-0.9-0.32-1.36
			v-15.67c0-0.46,0.11-0.91,0.32-1.36c0.21-0.44,0.5-0.84,0.85-1.19c0.35-0.35,0.75-0.64,1.19-0.85c0.44-0.21,0.88-0.32,1.31-0.32
			h21.8c0.24,0,0.44,0.2,0.44,0.44v5.32c0,0.24-0.2,0.44-0.44,0.44h-18.42c-0.24,0-0.44,0.2-0.44,0.44v9.82
			c0,0.24,0.2,0.44,0.44,0.44h18.42c0.24,0,0.44,0.2,0.44,0.44v5.32c0,0.24-0.2,0.44-0.44,0.44h-21.8
			C455.24,148.22,454.8,148.11,454.36,147.9z"/>
		<path class="st2" d="M383.74,124.99h-10.32h-6.37h-10.32c-0.3,0-0.55,0.25-0.55,0.55v5.8c0,0.3,0.25,0.55,0.55,0.55h9.21
			c0.3,0,0.55,0.25,0.55,0.55v15.08c0,0.3,0.25,0.55,0.55,0.55h0.02h6.37h0.02c0.3,0,0.55-0.25,0.55-0.55v-15.08
			c0-0.3,0.25-0.55,0.55-0.55h9.21c0.3,0,0.55-0.25,0.55-0.55v-5.8C384.29,125.24,384.04,124.99,383.74,124.99z"/>
	</g>
</g>
</svg>
